<?xml version="1.0" encoding="UTF-8"?>
<svg id="Capa_2" data-name="Capa 2" xmlns="http://www.w3.org/2000/svg" viewBox="0 0 940.96 592.56">
  <defs>
    <style>
      .cls-1 {
        fill: #0049ff;
      }
    </style>
  </defs>
  <g id="Capa_1-2" data-name="Capa 1">
    <path class="cls-1" d="M906.31,157.15l-.08.16c-.53,1.14-1.07,2.27-1.62,3.38h0c-6.18,12.72-13.39,24.59-21.5,35.58-9.54,12.92-20.31,24.62-32.06,34.99-13.17,11.62-27.57,21.59-42.86,29.77-.06.03-.12.07-.18.1-18.87,10.08-39.09,17.45-60.01,21.88-.04.01-.08.02-.12.02-17.01,3.6-34.49,5.25-52.09,4.83-15.68-.37-31.46-2.38-47.08-6.14-14.51-3.48-28.89-8.47-42.94-15.01l-246.13-114.77c-12.81-5.97-26.08-9.78-39.38-11.56-1.63-.22-3.27-.41-4.9-.57-17.8-1.73-35.6.13-52.37,5.21-4.82,1.46-9.57,3.18-14.19,5.17-16.12,6.89-30.94,16.91-43.47,29.67-10.52,10.72-19.43,23.37-26.13,37.76-10.57,22.66-37.49,32.45-60.15,21.89h0c-22.62-10.55-32.43-37.41-21.94-60.05l.05-.1c.06-.14.13-.28.2-.41,6.53-13.89,14.29-26.8,23.1-38.67,9.57-12.91,20.37-24.59,32.16-34.95,3.46-3.04,7-5.97,10.63-8.78h0c10.15-7.89,20.93-14.85,32.19-20.86.11-.06.22-.12.33-.18,18.82-10,38.97-17.32,59.82-21.71.16-.04.33-.07.49-.11,16.89-3.53,34.24-5.14,51.7-4.71,15.68.38,31.45,2.41,47.07,6.17,1.29.31,2.57.63,3.86.96,13.2,3.42,26.27,8.09,39.07,14.06l.13-.29,246.22,114.82c14.35,6.69,29.28,10.66,44.19,12.12,17.8,1.74,35.58-.1,52.35-5.16,4.87-1.47,9.65-3.21,14.32-5.2,16.11-6.89,30.93-16.91,43.47-29.68,9.37-9.55,17.46-20.63,23.86-33.11l.02-.04c.78-1.52,1.53-3.06,2.25-4.61h0c10.57-22.53,37.4-32.26,59.96-21.74,21.43,9.99,31.32,34.65,23.33,56.44l-.02.03c-.5,1.13-1.01,2.26-1.54,3.39ZM578.43,4.26h0s-.08-.04-.08-.04c-22.64-10.51-49.52-.7-60.07,21.93-10.55,22.63-.79,49.52,21.81,60.11l.08.04c9.24,4.31,19.19,5.23,28.44,3.28,12.6-2.66,23.93-10.65,30.45-22.68l2.36-5.06c8.71-22.08-1.18-47.41-22.99-57.58ZM914.82,460.77l-451.25-210.42c-9.23-4.31-19.17-5.23-28.43-3.27-13.45,2.84-25.46,11.74-31.72,25.17l-.15.31c-5.01,10.75-7.72,22.39-8.21,34.24-.15,3.71-.41,7.42-.77,11.13-1.48,15.21-4.69,30.44-9.76,45.39-2.39,7.08-5.2,14.1-8.44,21.04-1.05,2.24-2.13,4.46-3.25,6.64-2.33,4.57-4.82,9.02-7.45,13.34-8.21,13.49-17.8,25.74-28.51,36.65-6.53,6.66-13.48,12.81-20.78,18.44-6.08,4.69-12.4,9.03-18.93,12.98-14.68,8.9-30.41,15.89-46.78,20.84-1.49.46-2.99.89-4.49,1.3h0c-1.77.5-3.55.96-5.33,1.4-14.39,3.59-29.21,5.61-44.17,5.99-15.88.4-31.93-1.07-47.83-4.52-14.59-3.15-29.06-7.98-43.16-14.55l-40.49-18.88c-22.82-10.64-50.52-.82-60.9,22.12-6.04,13.35-5.07,28.13,1.4,40.14h0c4.46,8.29,11.53,15.25,20.7,19.53l41.02,19.13c13.95,6.51,28.15,11.82,42.49,15.99,15.08,4.39,30.3,7.51,45.55,9.41,16.38,2.04,32.78,2.67,49.04,1.95,8.11-.35,16.18-1.05,24.21-2.07,9.81-1.25,19.53-2.99,29.13-5.21,13.7-3.16,27.16-7.3,40.24-12.38,6.54-2.53,12.99-5.29,19.34-8.29,11.04-5.2,21.77-11.1,32.12-17.66,14.27-9.05,27.82-19.36,40.45-30.86l.08-.18.07.03c11.64-10.61,22.49-22.23,32.43-34.82,6.76-8.56,13.09-17.56,18.95-27,2.25-3.62,4.43-7.31,6.54-11.06,3.67-6.53,7.13-13.25,10.34-20.15,3.22-6.9,6.15-13.86,8.79-20.87,5.47-14.5,9.7-29.2,12.77-43.98l396.85,185.05c22.54,10.51,49.31.86,59.98-21.54.06-.11.12-.24.17-.35l.08-.18c10.43-22.62.62-49.44-21.98-59.98Z"/>
  </g>
</svg>