<?xml version="1.0" encoding="UTF-8"?>
<svg id="Capa_2" data-name="Capa 2" xmlns="http://www.w3.org/2000/svg" viewBox="0 0 1497.06 334.94">
  <defs>
    <style>
      .cls-1 {
        fill: #0049ff;
      }
    </style>
  </defs>
  <g id="Capa_1-2" data-name="Capa 1">
    <g>
      <path class="cls-1" d="M0,4.69C0,2.1,2.1,0,4.69,0h116.43c60.76,0,99.31,32.32,99.31,82.56,0,28.23-14.11,50.1-35.81,61.64-3.57,1.9-3.2,7.19.62,8.53,18.9,6.64,28.99,21.27,30.91,44.33l6.56,74.34c.24,2.74-1.92,5.11-4.67,5.11h-50.87c-2.46,0-4.5-1.9-4.68-4.35l-4.75-65.75c-1.56-21.03-11.68-31.16-39.72-31.16h-54.12c-2.59,0-4.69,2.1-4.69,4.69v91.87c0,2.59-2.1,4.69-4.69,4.69H4.69c-2.59,0-4.69-2.1-4.69-4.69V4.69ZM114.5,125.79c28.43,0,45.18-14.02,45.18-38.17s-16.36-37.78-47.12-37.78h-48.66c-2.59,0-4.69,2.1-4.69,4.69v66.56c0,2.59,2.1,4.69,4.69,4.69h50.61Z"/>
      <path class="cls-1" d="M254.7,202.13V72.46c0-2.59,2.1-4.69,4.69-4.69h49.03c2.59,0,4.69,2.1,4.69,4.69v116.04c0,32.32,9.74,46.35,30.77,46.35,23.76,0,37.78-15.97,37.78-49.07v-113.31c0-2.59,2.1-4.69,4.69-4.69h49.03c2.59,0,4.69,2.1,4.69,4.69v199.36c0,2.59-2.1,4.69-4.69,4.69h-44.08c-2.55,0-4.63-2.04-4.69-4.58l-.28-12.11c-.1-4.46-5.8-6.28-8.45-2.69-11.87,16.04-30.34,24.06-54.65,24.06-43.23,0-68.54-28.82-68.54-79.06Z"/>
      <path class="cls-1" d="M486.06,67.77h43.35c2.53,0,4.6,2.01,4.69,4.53l.43,12.83c.15,4.47,5.89,6.22,8.5,2.58,12.55-17.56,31.77-24.62,54.01-24.62,44.79,0,70.88,30.77,70.88,79.06v129.67c0,2.59-2.1,4.69-4.69,4.69h-49.03c-2.59,0-4.69-2.1-4.69-4.69v-110.2c0-33.49-7.4-52.19-31.94-52.19s-37.78,18.69-37.78,52.19v110.2c0,2.59-2.1,4.69-4.69,4.69h-49.03c-2.59,0-4.69-2.1-4.69-4.69V72.46c0-2.59,2.1-4.69,4.69-4.69Z"/>
      <path class="cls-1" d="M693.23,172.14c0-66.6,33.49-109.05,85.68-109.05,23.45,0,42.26,8.07,54.48,22.07,2.85,3.27,8.22,1.25,8.22-3.08V4.69c0-2.59,2.1-4.69,4.69-4.69h49.03c2.59,0,4.69,2.1,4.69,4.69v267.13c0,2.59-2.1,4.69-4.69,4.69h-46.48c-2.52,0-4.59-1.99-4.69-4.51l-.45-11.84c-.16-4.28-5.5-6.12-8.26-2.85-12.97,15.36-33.08,23.88-56.54,23.88-52.97,0-85.68-42.06-85.68-109.05ZM841.61,172.14c0-42.45-15.58-64.26-43.62-64.26s-44.79,24.54-44.79,64.26,17.91,64.26,44.79,64.26,43.62-22.2,43.62-64.26Z"/>
      <path class="cls-1" d="M1064.65,67.77c-10.98-3.11-23.56-4.68-37.75-4.68s-26.7,1.57-37.96,4.68c-25.88,7.14-44.21,22.4-53.56,45.48-1.79,4.4-3.24,9.09-4.37,14.06-.64,2.85,1.44,5.6,4.37,5.74h0s49.47,2.29,49.47,2.29c2.18.1,4.16-1.3,4.73-3.41,1.03-3.83,2.43-7.27,4.22-10.3,6.16-10.53,16.95-16.1,33.1-16.1,21.79,0,34.12,12.25,35.34,36.76.12,2.35-1.47,4.44-3.78,4.89l-63.5,12.48c-.39.08-.79.16-1.17.25-28.49,5.99-48,15.74-58.42,31.39-5.97,8.94-8.95,19.81-8.95,33.01,0,35.83,29.59,56.86,73.21,56.86.74,0,1.47,0,2.2-.02h.08c12.12-.21,23.03-2.09,32.54-5.39.02,0,.04,0,.05-.02,9.85-3.4,18.19-8.32,24.8-14.44,2.94-2.72,7.73-.62,7.83,3.39l.17,7.21c.06,2.55,2.14,4.59,4.69,4.59h44.07c2.59,0,4.69-2.1,4.69-4.69v-121.49c0-43.93-18.82-72.05-56.11-82.56ZM1062.35,193.17c0,29.99-19.47,47.9-48.68,47.9-17.92,0-27.26-8.18-27.26-22.2,0-7.27,2.65-12.99,8.03-17.33,4.71-3.81,11.5-6.57,20.4-8.38l41.84-8.92c2.92-.62,5.67,1.6,5.67,4.59v4.33Z"/>
      <path class="cls-1" d="M1494.1,67.77c2.04,0,3.47,2.02,2.8,3.95l-78.85,224.66c-9.34,27.65-25.7,38.56-57.25,38.56h-36.76c-1.64,0-2.96-1.33-2.96-2.96v-37.7c0-1.64,1.33-2.96,2.96-2.96h24.68c13.25,0,18.7-3.12,22.59-13.24l2.88-8.12c.68-1.93-.75-3.96-2.79-3.96h-9.71c-1.24,0-2.35-.77-2.78-1.94l-67.16-181.83c-.89-2.4-4.45-1.77-4.45.79v30.07c0,1.64-1.33,2.96-2.96,2.96h-21.3c-32.71,0-47.9,12.08-47.9,43.23v114.26c0,1.64-1.33,2.96-2.96,2.96h-52.49c-1.64,0-2.96-1.33-2.96-2.96V70.73c0-1.64,1.33-2.96,2.96-2.96h49.49c1.59,0,2.9,1.26,2.96,2.85l.88,23.72c.12,3.09,4.32,3.98,5.63,1.18,9.04-19.3,23.54-27.75,44.39-27.75h80.82c1.28,0,2.41.82,2.81,2.03l44.32,132.96c.91,2.73,4.79,2.69,5.64-.06l41.4-132.85c.39-1.24,1.53-2.08,2.83-2.08h53.23Z"/>
    </g>
  </g>
</svg>